<svg width="105" height="105" viewBox="0 0 105 105" fill="none" xmlns="http://www.w3.org/2000/svg">
<path d="M78.4321 11.872C78.9713 11.3331 79.6582 10.9661 80.4059 10.8175C81.1536 10.6688 81.9285 10.7452 82.6328 11.0369C83.3372 11.3286 83.9392 11.8225 84.3629 12.4563C84.7865 13.09 85.0128 13.8351 85.0131 14.5975V90.4025C85.0128 91.1649 84.7865 91.91 84.3629 92.5437C83.9392 93.1775 83.3372 93.6714 82.6328 93.9631C81.9285 94.2548 81.1536 94.3312 80.4059 94.1825C79.6582 94.0339 78.9713 93.6669 78.4321 93.128L40.5296 55.2255C40.1713 54.8678 39.8871 54.4429 39.6931 53.9753C39.4992 53.5076 39.3994 53.0063 39.3994 52.5C39.3994 51.9937 39.4992 51.4924 39.6931 51.0247C39.8871 50.5571 40.1713 50.1322 40.5296 49.7745L78.4321 11.872Z" fill="#370617"/>
<path d="M23.8424 10.744C24.8626 10.7468 25.8401 11.1539 26.5605 11.8763C27.281 12.5987 27.6856 13.5772 27.6855 14.5975V90.4025C27.6623 91.4094 27.246 92.3672 26.5257 93.0711C25.8054 93.775 24.8382 94.1691 23.8311 94.1691C22.824 94.1691 21.8568 93.775 21.1365 93.0711C20.4162 92.3672 19.9999 91.4094 19.9767 90.4025V14.5975C19.9767 14.0904 20.0767 13.5883 20.2712 13.12C20.4656 12.6516 20.7505 12.2263 21.1096 11.8683C21.4688 11.5103 21.895 11.2268 22.364 11.0338C22.8329 10.8409 23.3353 10.7424 23.8424 10.744Z" fill="#370617"/>
</svg>
