<svg width="105" height="106" viewBox="0 0 105 106" fill="none" xmlns="http://www.w3.org/2000/svg">
<path d="M26.5679 12.372C26.0287 11.8331 25.3418 11.4661 24.5941 11.3175C23.8464 11.1688 23.0715 11.2452 22.3672 11.5369C21.6628 11.8286 21.0608 12.3225 20.6371 12.9563C20.2135 13.59 19.9872 14.3351 19.9869 15.0975V90.9025C19.9872 91.6649 20.2135 92.41 20.6371 93.0437C21.0608 93.6775 21.6628 94.1714 22.3672 94.4631C23.0715 94.7548 23.8464 94.8312 24.5941 94.6825C25.3418 94.5339 26.0287 94.1669 26.5679 93.628L64.4704 55.7255C64.8287 55.3678 65.1129 54.9429 65.3069 54.4753C65.5008 54.0076 65.6006 53.5063 65.6006 53C65.6006 52.4937 65.5008 51.9924 65.3069 51.5247C65.1129 51.0571 64.8287 50.6322 64.4704 50.2745L26.5679 12.372Z" fill="#370617"/>
<path d="M81.1576 11.244C80.1374 11.2468 79.1599 11.6539 78.4395 12.3763C77.719 13.0987 77.3144 14.0772 77.3145 15.0975V90.9025C77.3377 91.9094 77.754 92.8672 78.4743 93.5711C79.1946 94.275 80.1618 94.6691 81.1689 94.6691C82.176 94.6691 83.1432 94.275 83.8635 93.5711C84.5838 92.8672 85.0001 91.9094 85.0233 90.9025V15.0975C85.0233 14.5904 84.9233 14.0883 84.7288 13.62C84.5344 13.1516 84.2495 12.7263 83.8904 12.3683C83.5312 12.0103 83.105 11.7268 82.636 11.5338C82.1671 11.3409 81.6647 11.2424 81.1576 11.244Z" fill="#370617"/>
</svg>
